# xmcd
#
# Track frame offsets:
#	150
#	11361
#	23959
#	35105
#	47021
#	60983
#	76543
#	88163
#	101899
#	113823
#
# Disc length: 1692 seconds
#
# Revision: 1
# Processed by: cddbd v1.5.2PL0 Copyright (c) Steve Scherf et al.
# Submitted via: FairStars CD Ripper 1.90
#
DISCID=72069a0a
DTITLE=Conway Twitty - Conway Twitty
DYEAR=2007
DGENRE=Country
TTITLE0=Hello Darlin'
TTITLE1=I've Hurt Her More Than She Loves Me
TTITLE2=As Soon as I Hang Up the Phone
TTITLE3=(Lying Here) With Linda on My Mind
TTITLE4=Fifteen Years Ago
TTITLE5=Touch the Hand
TTITLE6=To See An Angel Cry
TTITLE7=Baby's Gone
TTITLE8=I Can't See Me Without You
TTITLE9=Danny Boy
EXTD=
EXTT0=
EXTT1=
EXTT2=
EXTT3=
EXTT4=
EXTT5=
EXTT6=
EXTT7=
EXTT8=
EXTT9=
PLAYORDER=
